<mxfile host="app.diagrams.net" modified="2024-03-23T18:46:13.865Z" agent="Mozilla/5.0 (Macintosh; Intel Mac OS X 10_15_7) AppleWebKit/537.36 (KHTML, like Gecko) Chrome/123.0.0.0 Safari/537.36" etag="ANaQAMuxogqlFr8QniDR" version="24.0.8" type="github" pages="3">
  <diagram name="Components of Offsite Tuning" id="aEdvCWHl5ve0eAZ5gzQz">
    <mxGraphModel dx="1766" dy="686" grid="0" gridSize="10" guides="1" tooltips="1" connect="1" arrows="1" fold="1" page="0" pageScale="1" pageWidth="827" pageHeight="1169" math="0" shadow="0">
      <root>
        <mxCell id="0" />
        <mxCell id="1" parent="0" />
        <mxCell id="g87Sq08Z5pFR0paeDaG6-1" value="&lt;b&gt;Adapter&lt;/b&gt;" style="rounded=1;whiteSpace=wrap;html=1;fillColor=#99CCFF;" vertex="1" parent="1">
          <mxGeometry x="90" y="158" width="186" height="20" as="geometry" />
        </mxCell>
        <mxCell id="g87Sq08Z5pFR0paeDaG6-9" value="&lt;b style=&quot;font-size: 10px;&quot;&gt;Frozen Component Layer 3&lt;/b&gt;" style="rounded=1;whiteSpace=wrap;html=1;" vertex="1" parent="1">
          <mxGeometry x="90" y="278" width="186" height="20" as="geometry" />
        </mxCell>
        <mxCell id="g87Sq08Z5pFR0paeDaG6-12" value="&lt;b&gt;&lt;font style=&quot;font-size: 10px;&quot;&gt;Compressed Emulator Layer K-1&lt;/font&gt;&lt;/b&gt;" style="rounded=1;whiteSpace=wrap;html=1;" vertex="1" parent="1">
          <mxGeometry x="424" y="368" width="186" height="20" as="geometry" />
        </mxCell>
        <mxCell id="g87Sq08Z5pFR0paeDaG6-13" value="&lt;b&gt;&lt;font style=&quot;font-size: 10px;&quot;&gt;Compressed Emulator Layer K&lt;/font&gt;&lt;/b&gt;" style="rounded=1;whiteSpace=wrap;html=1;" vertex="1" parent="1">
          <mxGeometry x="424" y="398" width="186" height="20" as="geometry" />
        </mxCell>
        <mxCell id="g87Sq08Z5pFR0paeDaG6-14" value="&lt;b&gt;Adapter&lt;/b&gt;" style="rounded=1;whiteSpace=wrap;html=1;fillColor=#99CCFF;" vertex="1" parent="1">
          <mxGeometry x="90" y="188" width="186" height="20" as="geometry" />
        </mxCell>
        <mxCell id="g87Sq08Z5pFR0paeDaG6-15" value="&lt;b&gt;Adapter&lt;/b&gt;" style="rounded=1;whiteSpace=wrap;html=1;fillColor=#99CCFF;" vertex="1" parent="1">
          <mxGeometry x="90" y="458" width="186" height="20" as="geometry" />
        </mxCell>
        <mxCell id="g87Sq08Z5pFR0paeDaG6-16" value="&lt;b&gt;Adapter&lt;/b&gt;" style="rounded=1;whiteSpace=wrap;html=1;fillColor=#99CCFF;" vertex="1" parent="1">
          <mxGeometry x="90" y="488" width="186" height="20" as="geometry" />
        </mxCell>
        <mxCell id="g87Sq08Z5pFR0paeDaG6-17" value="" style="endArrow=none;dashed=1;html=1;dashPattern=1 3;strokeWidth=2;rounded=0;exitX=0.5;exitY=0;exitDx=0;exitDy=0;entryX=0.5;entryY=1;entryDx=0;entryDy=0;" edge="1" parent="1" source="g87Sq08Z5pFR0paeDaG6-31" target="g87Sq08Z5pFR0paeDaG6-9">
          <mxGeometry width="50" height="50" relative="1" as="geometry">
            <mxPoint x="159" y="368" as="sourcePoint" />
            <mxPoint x="179" y="308" as="targetPoint" />
          </mxGeometry>
        </mxCell>
        <mxCell id="g87Sq08Z5pFR0paeDaG6-22" value="" style="shape=curlyBracket;whiteSpace=wrap;html=1;rounded=1;labelPosition=left;verticalLabelPosition=middle;align=right;verticalAlign=middle;strokeWidth=2;" vertex="1" parent="1">
          <mxGeometry x="40" y="222" width="20" height="226" as="geometry" />
        </mxCell>
        <mxCell id="g87Sq08Z5pFR0paeDaG6-23" value="&lt;b&gt;Original Frozen&amp;nbsp;&lt;/b&gt;&lt;div&gt;&lt;b&gt;Component&amp;nbsp;&lt;/b&gt;&lt;b style=&quot;font-size: medium; text-align: start; text-wrap: wrap;&quot;&gt;&lt;i&gt;&lt;span style=&quot;font-size: 12pt; font-family: Arial, sans-serif;&quot; lang=&quot;EN-US&quot;&gt;ε&lt;/span&gt;&lt;/i&gt;&lt;/b&gt;&lt;span style=&quot;font-size: medium; text-align: start; text-wrap: wrap;&quot;&gt;&lt;/span&gt;&lt;/div&gt;" style="text;html=1;align=center;verticalAlign=middle;resizable=0;points=[];autosize=1;strokeColor=none;fillColor=none;" vertex="1" parent="1">
          <mxGeometry x="-77" y="311.5" width="109" height="47" as="geometry" />
        </mxCell>
        <mxCell id="g87Sq08Z5pFR0paeDaG6-29" value="" style="shape=singleArrow;whiteSpace=wrap;html=1;strokeWidth=2;arrowWidth=0.5272727272727272;arrowSize=0.2;fillColor=#000000;" vertex="1" parent="1">
          <mxGeometry x="316" y="322.75" width="81" height="17.63" as="geometry" />
        </mxCell>
        <mxCell id="g87Sq08Z5pFR0paeDaG6-30" value="&lt;b&gt;Compression&lt;/b&gt;&lt;div&gt;&lt;b&gt;on&amp;nbsp;&lt;/b&gt;&lt;b style=&quot;text-wrap: wrap; font-size: medium; text-align: start;&quot;&gt;&lt;i&gt;&lt;span style=&quot;font-size: 12pt; font-family: Arial, sans-serif;&quot; lang=&quot;EN-US&quot;&gt;ε&lt;/span&gt;&lt;/i&gt;&lt;/b&gt;&lt;/div&gt;" style="text;html=1;align=center;verticalAlign=middle;resizable=0;points=[];autosize=1;strokeColor=none;fillColor=none;" vertex="1" parent="1">
          <mxGeometry x="305" y="276.75" width="95" height="46" as="geometry" />
        </mxCell>
        <mxCell id="g87Sq08Z5pFR0paeDaG6-31" value="&lt;b style=&quot;font-size: 10px;&quot;&gt;Frozen Component Layer N-2&lt;/b&gt;" style="rounded=1;whiteSpace=wrap;html=1;" vertex="1" parent="1">
          <mxGeometry x="90" y="368" width="186" height="20" as="geometry" />
        </mxCell>
        <mxCell id="g87Sq08Z5pFR0paeDaG6-32" value="&lt;b style=&quot;font-size: 10px;&quot;&gt;Frozen Component Layer N-1&lt;/b&gt;" style="rounded=1;whiteSpace=wrap;html=1;" vertex="1" parent="1">
          <mxGeometry x="90" y="398" width="186" height="20" as="geometry" />
        </mxCell>
        <mxCell id="g87Sq08Z5pFR0paeDaG6-33" value="&lt;b&gt;&lt;font style=&quot;font-size: 10px;&quot;&gt;Compressed Emulator Layer 1&lt;/font&gt;&lt;/b&gt;" style="rounded=1;whiteSpace=wrap;html=1;" vertex="1" parent="1">
          <mxGeometry x="424" y="248" width="186" height="20" as="geometry" />
        </mxCell>
        <mxCell id="g87Sq08Z5pFR0paeDaG6-34" value="&lt;b&gt;&lt;font style=&quot;font-size: 10px;&quot;&gt;Compressed Emulator Layer 2&lt;/font&gt;&lt;/b&gt;" style="rounded=1;whiteSpace=wrap;html=1;" vertex="1" parent="1">
          <mxGeometry x="424" y="278" width="186" height="20" as="geometry" />
        </mxCell>
        <mxCell id="g87Sq08Z5pFR0paeDaG6-36" value="&lt;b&gt;Adapter&lt;/b&gt;" style="rounded=1;whiteSpace=wrap;html=1;fillColor=#99CCFF;" vertex="1" parent="1">
          <mxGeometry x="424" y="188" width="186" height="20" as="geometry" />
        </mxCell>
        <mxCell id="g87Sq08Z5pFR0paeDaG6-37" value="&lt;b&gt;Adapter&lt;/b&gt;" style="rounded=1;whiteSpace=wrap;html=1;fillColor=#99CCFF;" vertex="1" parent="1">
          <mxGeometry x="424" y="218" width="186" height="20" as="geometry" />
        </mxCell>
        <mxCell id="g87Sq08Z5pFR0paeDaG6-38" value="&lt;b&gt;Adapter&lt;/b&gt;" style="rounded=1;whiteSpace=wrap;html=1;fillColor=#99CCFF;" vertex="1" parent="1">
          <mxGeometry x="424" y="428" width="186" height="20" as="geometry" />
        </mxCell>
        <mxCell id="g87Sq08Z5pFR0paeDaG6-39" value="&lt;b&gt;Adapter&lt;/b&gt;" style="rounded=1;whiteSpace=wrap;html=1;fillColor=#99CCFF;" vertex="1" parent="1">
          <mxGeometry x="424" y="458" width="186" height="20" as="geometry" />
        </mxCell>
        <mxCell id="g87Sq08Z5pFR0paeDaG6-40" value="&lt;b style=&quot;font-size: 10px;&quot;&gt;Frozen Component Layer 1&lt;/b&gt;" style="rounded=1;whiteSpace=wrap;html=1;" vertex="1" parent="1">
          <mxGeometry x="90" y="218" width="186" height="20" as="geometry" />
        </mxCell>
        <mxCell id="g87Sq08Z5pFR0paeDaG6-41" value="&lt;b style=&quot;font-size: 10px;&quot;&gt;Frozen Component Layer 2&lt;/b&gt;" style="rounded=1;whiteSpace=wrap;html=1;" vertex="1" parent="1">
          <mxGeometry x="90" y="248" width="186" height="20" as="geometry" />
        </mxCell>
        <mxCell id="g87Sq08Z5pFR0paeDaG6-43" value="&lt;b style=&quot;font-size: 10px;&quot;&gt;Frozen Component Layer N&lt;/b&gt;" style="rounded=1;whiteSpace=wrap;html=1;" vertex="1" parent="1">
          <mxGeometry x="90" y="428" width="186" height="20" as="geometry" />
        </mxCell>
        <mxCell id="g87Sq08Z5pFR0paeDaG6-44" value="" style="endArrow=none;dashed=1;html=1;dashPattern=1 3;strokeWidth=2;rounded=0;exitX=0.5;exitY=0;exitDx=0;exitDy=0;entryX=0.5;entryY=1;entryDx=0;entryDy=0;" edge="1" parent="1" source="g87Sq08Z5pFR0paeDaG6-12" target="g87Sq08Z5pFR0paeDaG6-34">
          <mxGeometry width="50" height="50" relative="1" as="geometry">
            <mxPoint x="524" y="368" as="sourcePoint" />
            <mxPoint x="524" y="298" as="targetPoint" />
          </mxGeometry>
        </mxCell>
        <mxCell id="g87Sq08Z5pFR0paeDaG6-46" value="" style="shape=curlyBracket;whiteSpace=wrap;html=1;rounded=1;flipH=1;labelPosition=right;verticalLabelPosition=middle;align=left;verticalAlign=middle;strokeWidth=2;" vertex="1" parent="1">
          <mxGeometry x="644" y="248" width="20" height="170" as="geometry" />
        </mxCell>
        <mxCell id="g87Sq08Z5pFR0paeDaG6-47" value="&lt;b&gt;Compressed&amp;nbsp;&lt;/b&gt;&lt;div&gt;&lt;b&gt;Emulator&amp;nbsp;&lt;/b&gt;&lt;b style=&quot;text-wrap: wrap; font-size: medium; text-align: start;&quot;&gt;&lt;i&gt;&lt;span style=&quot;font-size: 12pt; font-family: Arial, sans-serif;&quot; lang=&quot;EN-US&quot;&gt;ε*&lt;/span&gt;&lt;/i&gt;&lt;/b&gt;&lt;/div&gt;" style="text;html=1;align=center;verticalAlign=middle;resizable=0;points=[];autosize=1;strokeColor=none;fillColor=none;" vertex="1" parent="1">
          <mxGeometry x="675" y="308.07" width="94" height="47" as="geometry" />
        </mxCell>
        <mxCell id="g87Sq08Z5pFR0paeDaG6-48" value="&lt;b&gt;Original Foundation Model&lt;/b&gt;" style="text;html=1;align=center;verticalAlign=middle;resizable=0;points=[];autosize=1;fontColor=#FF6666;strokeColor=none;" vertex="1" parent="1">
          <mxGeometry x="98" y="108" width="170" height="26" as="geometry" />
        </mxCell>
        <mxCell id="g87Sq08Z5pFR0paeDaG6-49" value="&lt;b&gt;Smaller Substitute Model&lt;/b&gt;" style="text;html=1;align=center;verticalAlign=middle;resizable=0;points=[];autosize=1;labelBackgroundColor=none;fontColor=#FF6666;" vertex="1" parent="1">
          <mxGeometry x="436.5" y="108" width="161" height="26" as="geometry" />
        </mxCell>
      </root>
    </mxGraphModel>
  </diagram>
  <diagram id="hB2LunCypsGWomXt-wyE" name="Methodology for Experiment 1">
    <mxGraphModel dx="2234" dy="320" grid="0" gridSize="10" guides="1" tooltips="1" connect="1" arrows="1" fold="1" page="0" pageScale="1" pageWidth="827" pageHeight="1169" math="0" shadow="0">
      <root>
        <mxCell id="0" />
        <mxCell id="1" parent="0" />
        <mxCell id="aOosx10H6OlpPJV3kiYZ-1" value="" style="group" vertex="1" connectable="0" parent="1">
          <mxGeometry x="93" y="628" width="166" height="366" as="geometry" />
        </mxCell>
        <mxCell id="aOosx10H6OlpPJV3kiYZ-2" value="&lt;b&gt;Middle-Layer Dropping&lt;/b&gt;" style="text;html=1;align=center;verticalAlign=middle;resizable=0;points=[];autosize=1;fontColor=#FF6666;strokeColor=none;container=0;" vertex="1" parent="aOosx10H6OlpPJV3kiYZ-1">
          <mxGeometry x="8.004516129032256" width="150" height="30" as="geometry" />
        </mxCell>
        <mxCell id="aOosx10H6OlpPJV3kiYZ-3" value="&lt;b style=&quot;font-size: 10px;&quot;&gt;Adapter Layer&amp;nbsp;&lt;i&gt;A&lt;/i&gt;&lt;/b&gt;" style="rounded=1;whiteSpace=wrap;html=1;fillColor=#99CCFF;flipV=1;flipH=1;" vertex="1" parent="aOosx10H6OlpPJV3kiYZ-1">
          <mxGeometry y="40" width="166" height="20" as="geometry" />
        </mxCell>
        <mxCell id="aOosx10H6OlpPJV3kiYZ-4" value="&lt;b style=&quot;font-size: 10px;&quot;&gt;Frozen Component&amp;nbsp;&lt;/b&gt;&lt;b style=&quot;text-align: start;&quot;&gt;&lt;i&gt;&lt;span style=&quot;font-family: Arial, sans-serif;&quot; lang=&quot;EN-US&quot;&gt;&lt;font style=&quot;font-size: 14px;&quot;&gt;ε&lt;/font&gt;&lt;/span&gt;&lt;/i&gt;&lt;/b&gt;&lt;b style=&quot;font-size: 10px;&quot;&gt;&amp;nbsp;Layer&lt;/b&gt;" style="rounded=1;whiteSpace=wrap;html=1;flipV=1;flipH=1;textOpacity=30;opacity=30;" vertex="1" parent="aOosx10H6OlpPJV3kiYZ-1">
          <mxGeometry y="220" width="166" height="20" as="geometry" />
        </mxCell>
        <mxCell id="aOosx10H6OlpPJV3kiYZ-5" value="&lt;b style=&quot;font-size: 10px;&quot;&gt;Adapter Layer&amp;nbsp;&lt;i&gt;A&lt;/i&gt;&lt;/b&gt;" style="rounded=1;whiteSpace=wrap;html=1;fillColor=#99CCFF;flipV=1;flipH=1;" vertex="1" parent="aOosx10H6OlpPJV3kiYZ-1">
          <mxGeometry y="70" width="166" height="20" as="geometry" />
        </mxCell>
        <mxCell id="aOosx10H6OlpPJV3kiYZ-6" value="&lt;b style=&quot;font-size: 10px;&quot;&gt;Adapter Layer&amp;nbsp;&lt;i&gt;A&lt;/i&gt;&lt;/b&gt;" style="rounded=1;whiteSpace=wrap;html=1;fillColor=#99CCFF;flipV=1;flipH=1;" vertex="1" parent="aOosx10H6OlpPJV3kiYZ-1">
          <mxGeometry y="313" width="166" height="20" as="geometry" />
        </mxCell>
        <mxCell id="aOosx10H6OlpPJV3kiYZ-7" value="&lt;b style=&quot;font-size: 10px;&quot;&gt;Adapter Layer&amp;nbsp;&lt;i&gt;A&lt;/i&gt;&lt;/b&gt;" style="rounded=1;whiteSpace=wrap;html=1;fillColor=#99CCFF;flipV=1;flipH=1;" vertex="1" parent="aOosx10H6OlpPJV3kiYZ-1">
          <mxGeometry y="346" width="166" height="20" as="geometry" />
        </mxCell>
        <mxCell id="aOosx10H6OlpPJV3kiYZ-8" value="&lt;b style=&quot;font-size: 10px;&quot;&gt;Compressed Emulator&amp;nbsp;&lt;/b&gt;&lt;b style=&quot;text-align: start;&quot;&gt;&lt;i&gt;&lt;span style=&quot;font-family: Arial, sans-serif;&quot; lang=&quot;EN-US&quot;&gt;&lt;font style=&quot;font-size: 14px;&quot;&gt;ε*&amp;nbsp;&lt;/font&gt;&lt;/span&gt;&lt;/i&gt;&lt;/b&gt;&lt;b style=&quot;font-size: 10px;&quot;&gt;Layer&lt;/b&gt;" style="rounded=1;whiteSpace=wrap;html=1;flipV=1;flipH=1;" vertex="1" parent="aOosx10H6OlpPJV3kiYZ-1">
          <mxGeometry y="130" width="166" height="20" as="geometry" />
        </mxCell>
        <mxCell id="aOosx10H6OlpPJV3kiYZ-9" value="&lt;b&gt;Compressed Emulator&amp;nbsp;&lt;/b&gt;&lt;b style=&quot;font-size: 12px; text-align: start;&quot;&gt;&lt;i&gt;&lt;span style=&quot;font-family: Arial, sans-serif;&quot; lang=&quot;EN-US&quot;&gt;&lt;font style=&quot;font-size: 14px;&quot;&gt;ε*&amp;nbsp;&lt;/font&gt;&lt;/span&gt;&lt;/i&gt;&lt;/b&gt;&lt;b&gt;Layer&lt;/b&gt;" style="rounded=1;whiteSpace=wrap;html=1;fontSize=10;flipV=1;flipH=1;" vertex="1" parent="aOosx10H6OlpPJV3kiYZ-1">
          <mxGeometry y="252" width="166" height="20" as="geometry" />
        </mxCell>
        <mxCell id="aOosx10H6OlpPJV3kiYZ-10" value="&lt;b style=&quot;font-size: 10px;&quot;&gt;Compressed Emulator&amp;nbsp;&lt;/b&gt;&lt;b style=&quot;text-align: start;&quot;&gt;&lt;i&gt;&lt;span style=&quot;font-family: Arial, sans-serif;&quot; lang=&quot;EN-US&quot;&gt;&lt;font style=&quot;font-size: 14px;&quot;&gt;ε*&amp;nbsp;&lt;/font&gt;&lt;/span&gt;&lt;/i&gt;&lt;/b&gt;&lt;b style=&quot;font-size: 10px;&quot;&gt;Layer&lt;/b&gt;" style="rounded=1;whiteSpace=wrap;html=1;strokeColor=default;flipV=1;flipH=1;" vertex="1" parent="aOosx10H6OlpPJV3kiYZ-1">
          <mxGeometry y="100" width="166" height="20" as="geometry" />
        </mxCell>
        <mxCell id="aOosx10H6OlpPJV3kiYZ-11" value="&lt;b style=&quot;font-size: 10px;&quot;&gt;Frozen Component&amp;nbsp;&lt;/b&gt;&lt;b style=&quot;text-align: start;&quot;&gt;&lt;i&gt;&lt;span style=&quot;font-family: Arial, sans-serif;&quot; lang=&quot;EN-US&quot;&gt;&lt;font style=&quot;font-size: 14px;&quot;&gt;ε&lt;/font&gt;&lt;/span&gt;&lt;/i&gt;&lt;/b&gt;&lt;b style=&quot;font-size: 10px;&quot;&gt;&amp;nbsp;Layer&lt;/b&gt;" style="rounded=1;whiteSpace=wrap;html=1;flipV=1;flipH=1;opacity=30;textOpacity=30;" vertex="1" parent="aOosx10H6OlpPJV3kiYZ-1">
          <mxGeometry y="190" width="166" height="20" as="geometry" />
        </mxCell>
        <mxCell id="aOosx10H6OlpPJV3kiYZ-12" value="&lt;b style=&quot;font-size: 10px;&quot;&gt;Frozen Component&amp;nbsp;&lt;/b&gt;&lt;b style=&quot;text-align: start;&quot;&gt;&lt;i&gt;&lt;span style=&quot;font-family: Arial, sans-serif;&quot; lang=&quot;EN-US&quot;&gt;&lt;font style=&quot;font-size: 14px;&quot;&gt;ε&lt;/font&gt;&lt;/span&gt;&lt;/i&gt;&lt;/b&gt;&lt;b style=&quot;font-size: 10px;&quot;&gt;&amp;nbsp;Layer&lt;/b&gt;" style="rounded=1;whiteSpace=wrap;html=1;textOpacity=30;opacity=30;flipV=1;flipH=1;" vertex="1" parent="aOosx10H6OlpPJV3kiYZ-1">
          <mxGeometry y="160" width="166" height="20" as="geometry" />
        </mxCell>
        <mxCell id="aOosx10H6OlpPJV3kiYZ-13" value="&lt;b style=&quot;font-size: 10px;&quot;&gt;Compressed Emulator&amp;nbsp;&lt;/b&gt;&lt;b style=&quot;text-align: start;&quot;&gt;&lt;i&gt;&lt;span style=&quot;font-family: Arial, sans-serif;&quot; lang=&quot;EN-US&quot;&gt;&lt;font style=&quot;font-size: 14px;&quot;&gt;ε*&amp;nbsp;&lt;/font&gt;&lt;/span&gt;&lt;/i&gt;&lt;/b&gt;&lt;b style=&quot;font-size: 10px;&quot;&gt;Layer&lt;/b&gt;" style="rounded=1;whiteSpace=wrap;html=1;flipV=1;" vertex="1" parent="aOosx10H6OlpPJV3kiYZ-1">
          <mxGeometry y="283" width="166" height="20" as="geometry" />
        </mxCell>
        <mxCell id="aOosx10H6OlpPJV3kiYZ-14" value="" style="group" vertex="1" connectable="0" parent="1">
          <mxGeometry x="-106" y="627" width="166" height="366" as="geometry" />
        </mxCell>
        <mxCell id="aOosx10H6OlpPJV3kiYZ-15" value="&lt;b&gt;Top Layer Dropping&lt;/b&gt;" style="text;html=1;align=center;verticalAlign=middle;resizable=0;points=[];autosize=1;fontColor=#FF6666;strokeColor=none;" vertex="1" parent="aOosx10H6OlpPJV3kiYZ-14">
          <mxGeometry x="12.996881720430107" width="140" height="30" as="geometry" />
        </mxCell>
        <mxCell id="aOosx10H6OlpPJV3kiYZ-16" value="&lt;b style=&quot;font-size: 10px;&quot;&gt;Adapter Layer&amp;nbsp;&lt;i&gt;A&lt;/i&gt;&lt;/b&gt;" style="rounded=1;whiteSpace=wrap;html=1;fillColor=#99CCFF;flipV=1;flipH=1;" vertex="1" parent="aOosx10H6OlpPJV3kiYZ-14">
          <mxGeometry y="40" width="166" height="20" as="geometry" />
        </mxCell>
        <mxCell id="aOosx10H6OlpPJV3kiYZ-17" value="&lt;b style=&quot;font-size: 10px;&quot;&gt;Compressed Emulator&amp;nbsp;&lt;/b&gt;&lt;b style=&quot;text-align: start;&quot;&gt;&lt;i&gt;&lt;span style=&quot;font-family: Arial, sans-serif;&quot; lang=&quot;EN-US&quot;&gt;&lt;font style=&quot;font-size: 14px;&quot;&gt;ε*&amp;nbsp;&lt;/font&gt;&lt;/span&gt;&lt;/i&gt;&lt;/b&gt;&lt;b style=&quot;font-size: 10px;&quot;&gt;Layer&lt;/b&gt;" style="rounded=1;whiteSpace=wrap;html=1;flipV=1;flipH=1;" vertex="1" parent="aOosx10H6OlpPJV3kiYZ-14">
          <mxGeometry y="220" width="166" height="20" as="geometry" />
        </mxCell>
        <mxCell id="aOosx10H6OlpPJV3kiYZ-18" value="&lt;b style=&quot;font-size: 10px;&quot;&gt;Adapter Layer&amp;nbsp;&lt;i&gt;A&lt;/i&gt;&lt;/b&gt;" style="rounded=1;whiteSpace=wrap;html=1;fillColor=#99CCFF;flipV=1;flipH=1;" vertex="1" parent="aOosx10H6OlpPJV3kiYZ-14">
          <mxGeometry y="70" width="166" height="20" as="geometry" />
        </mxCell>
        <mxCell id="aOosx10H6OlpPJV3kiYZ-19" value="&lt;b style=&quot;font-size: 10px;&quot;&gt;Adapter Layer&amp;nbsp;&lt;i&gt;A&lt;/i&gt;&lt;/b&gt;" style="rounded=1;whiteSpace=wrap;html=1;fillColor=#99CCFF;flipV=1;flipH=1;" vertex="1" parent="aOosx10H6OlpPJV3kiYZ-14">
          <mxGeometry y="313" width="166" height="20" as="geometry" />
        </mxCell>
        <mxCell id="aOosx10H6OlpPJV3kiYZ-20" value="&lt;b style=&quot;font-size: 10px;&quot;&gt;Adapter Layer&amp;nbsp;&lt;i&gt;A&lt;/i&gt;&lt;/b&gt;" style="rounded=1;whiteSpace=wrap;html=1;fillColor=#99CCFF;flipV=1;flipH=1;" vertex="1" parent="aOosx10H6OlpPJV3kiYZ-14">
          <mxGeometry y="346" width="166" height="20" as="geometry" />
        </mxCell>
        <mxCell id="aOosx10H6OlpPJV3kiYZ-21" value="&lt;b style=&quot;font-size: 10px;&quot;&gt;Frozen Component&amp;nbsp;&lt;/b&gt;&lt;b style=&quot;text-align: start;&quot;&gt;&lt;i&gt;&lt;span style=&quot;font-family: Arial, sans-serif;&quot; lang=&quot;EN-US&quot;&gt;&lt;font style=&quot;font-size: 14px;&quot;&gt;ε&lt;/font&gt;&lt;/span&gt;&lt;/i&gt;&lt;/b&gt;&lt;b style=&quot;font-size: 10px;&quot;&gt;&amp;nbsp;Layer&lt;/b&gt;" style="rounded=1;whiteSpace=wrap;html=1;textOpacity=30;opacity=30;flipV=1;flipH=1;" vertex="1" parent="aOosx10H6OlpPJV3kiYZ-14">
          <mxGeometry y="130" width="166" height="20" as="geometry" />
        </mxCell>
        <mxCell id="aOosx10H6OlpPJV3kiYZ-22" value="&lt;b&gt;Compressed Emulator&amp;nbsp;&lt;/b&gt;&lt;b style=&quot;font-size: 12px; text-align: start;&quot;&gt;&lt;i&gt;&lt;span style=&quot;font-family: Arial, sans-serif;&quot; lang=&quot;EN-US&quot;&gt;&lt;font style=&quot;font-size: 14px;&quot;&gt;ε*&amp;nbsp;&lt;/font&gt;&lt;/span&gt;&lt;/i&gt;&lt;/b&gt;&lt;b&gt;Layer&lt;/b&gt;" style="rounded=1;whiteSpace=wrap;html=1;fontSize=10;flipV=1;flipH=1;" vertex="1" parent="aOosx10H6OlpPJV3kiYZ-14">
          <mxGeometry y="252" width="166" height="20" as="geometry" />
        </mxCell>
        <mxCell id="aOosx10H6OlpPJV3kiYZ-23" value="&lt;b style=&quot;font-size: 10px;&quot;&gt;Frozen Component&amp;nbsp;&lt;/b&gt;&lt;b style=&quot;text-align: start;&quot;&gt;&lt;i&gt;&lt;span style=&quot;font-family: Arial, sans-serif;&quot; lang=&quot;EN-US&quot;&gt;&lt;font style=&quot;font-size: 14px;&quot;&gt;ε&lt;/font&gt;&lt;/span&gt;&lt;/i&gt;&lt;/b&gt;&lt;b style=&quot;font-size: 10px;&quot;&gt;&amp;nbsp;Layer&lt;/b&gt;" style="rounded=1;whiteSpace=wrap;html=1;textOpacity=30;strokeColor=default;opacity=30;flipV=1;flipH=1;" vertex="1" parent="aOosx10H6OlpPJV3kiYZ-14">
          <mxGeometry y="100" width="166" height="20" as="geometry" />
        </mxCell>
        <mxCell id="aOosx10H6OlpPJV3kiYZ-24" value="&lt;b style=&quot;font-size: 10px;&quot;&gt;Compressed Emulator&amp;nbsp;&lt;/b&gt;&lt;b style=&quot;text-align: start;&quot;&gt;&lt;i&gt;&lt;span style=&quot;font-family: Arial, sans-serif;&quot; lang=&quot;EN-US&quot;&gt;&lt;font style=&quot;font-size: 14px;&quot;&gt;ε*&amp;nbsp;&lt;/font&gt;&lt;/span&gt;&lt;/i&gt;&lt;/b&gt;&lt;b style=&quot;font-size: 10px;&quot;&gt;Layer&lt;/b&gt;" style="rounded=1;whiteSpace=wrap;html=1;flipV=1;flipH=1;" vertex="1" parent="aOosx10H6OlpPJV3kiYZ-14">
          <mxGeometry y="190" width="166" height="20" as="geometry" />
        </mxCell>
        <mxCell id="aOosx10H6OlpPJV3kiYZ-25" value="&lt;b style=&quot;font-size: 10px;&quot;&gt;Frozen Component&amp;nbsp;&lt;/b&gt;&lt;b style=&quot;text-align: start;&quot;&gt;&lt;i&gt;&lt;span style=&quot;font-family: Arial, sans-serif;&quot; lang=&quot;EN-US&quot;&gt;&lt;font style=&quot;font-size: 14px;&quot;&gt;ε&lt;/font&gt;&lt;/span&gt;&lt;/i&gt;&lt;/b&gt;&lt;b style=&quot;font-size: 10px;&quot;&gt;&amp;nbsp;Layer&lt;/b&gt;" style="rounded=1;whiteSpace=wrap;html=1;textOpacity=30;opacity=30;flipV=1;flipH=1;" vertex="1" parent="aOosx10H6OlpPJV3kiYZ-14">
          <mxGeometry y="160" width="166" height="20" as="geometry" />
        </mxCell>
        <mxCell id="aOosx10H6OlpPJV3kiYZ-26" value="&lt;b style=&quot;font-size: 10px;&quot;&gt;Compressed Emulator&amp;nbsp;&lt;/b&gt;&lt;b style=&quot;text-align: start;&quot;&gt;&lt;i&gt;&lt;span style=&quot;font-family: Arial, sans-serif;&quot; lang=&quot;EN-US&quot;&gt;&lt;font style=&quot;font-size: 14px;&quot;&gt;ε*&amp;nbsp;&lt;/font&gt;&lt;/span&gt;&lt;/i&gt;&lt;/b&gt;&lt;b style=&quot;font-size: 10px;&quot;&gt;Layer&lt;/b&gt;" style="rounded=1;whiteSpace=wrap;html=1;flipV=1;" vertex="1" parent="aOosx10H6OlpPJV3kiYZ-14">
          <mxGeometry y="283" width="166" height="20" as="geometry" />
        </mxCell>
        <mxCell id="aOosx10H6OlpPJV3kiYZ-27" value="" style="group" vertex="1" connectable="0" parent="1">
          <mxGeometry x="-305" y="627" width="166" height="366" as="geometry" />
        </mxCell>
        <mxCell id="aOosx10H6OlpPJV3kiYZ-28" value="&lt;b&gt;Uniform Layer Dropping&lt;/b&gt;&lt;div style=&quot;line-height: 180%;&quot;&gt;&lt;b&gt;(Base Configuration)&lt;/b&gt;&lt;/div&gt;" style="text;html=1;align=center;verticalAlign=middle;resizable=0;points=[];autosize=1;fontColor=#FF6666;strokeColor=none;" vertex="1" parent="aOosx10H6OlpPJV3kiYZ-27">
          <mxGeometry x="3.0021505376344084" y="-12" width="160" height="50" as="geometry" />
        </mxCell>
        <mxCell id="aOosx10H6OlpPJV3kiYZ-29" value="&lt;b style=&quot;font-size: 10px;&quot;&gt;Adapter Layer&amp;nbsp;&lt;i&gt;A&lt;/i&gt;&lt;/b&gt;" style="rounded=1;whiteSpace=wrap;html=1;fillColor=#99CCFF;flipV=1;" vertex="1" parent="aOosx10H6OlpPJV3kiYZ-27">
          <mxGeometry y="40" width="166" height="20" as="geometry" />
        </mxCell>
        <mxCell id="aOosx10H6OlpPJV3kiYZ-30" value="&lt;b style=&quot;font-size: 10px;&quot;&gt;Compressed Emulator&amp;nbsp;&lt;/b&gt;&lt;b style=&quot;text-align: start;&quot;&gt;&lt;i&gt;&lt;span style=&quot;font-family: Arial, sans-serif;&quot; lang=&quot;EN-US&quot;&gt;&lt;font style=&quot;font-size: 14px;&quot;&gt;ε*&amp;nbsp;&lt;/font&gt;&lt;/span&gt;&lt;/i&gt;&lt;/b&gt;&lt;b style=&quot;font-size: 10px;&quot;&gt;Layer&lt;/b&gt;" style="rounded=1;whiteSpace=wrap;html=1;flipV=1;" vertex="1" parent="aOosx10H6OlpPJV3kiYZ-27">
          <mxGeometry y="160" width="166" height="20" as="geometry" />
        </mxCell>
        <mxCell id="aOosx10H6OlpPJV3kiYZ-31" value="&lt;b style=&quot;font-size: 10px;&quot;&gt;Adapter Layer&amp;nbsp;&lt;i&gt;A&lt;/i&gt;&lt;/b&gt;" style="rounded=1;whiteSpace=wrap;html=1;fillColor=#99CCFF;flipV=1;" vertex="1" parent="aOosx10H6OlpPJV3kiYZ-27">
          <mxGeometry y="70" width="166" height="20" as="geometry" />
        </mxCell>
        <mxCell id="aOosx10H6OlpPJV3kiYZ-32" value="&lt;b style=&quot;font-size: 10px;&quot;&gt;Adapter Layer&amp;nbsp;&lt;i&gt;A&lt;/i&gt;&lt;/b&gt;" style="rounded=1;whiteSpace=wrap;html=1;fillColor=#99CCFF;flipV=1;" vertex="1" parent="aOosx10H6OlpPJV3kiYZ-27">
          <mxGeometry y="313" width="166" height="20" as="geometry" />
        </mxCell>
        <mxCell id="aOosx10H6OlpPJV3kiYZ-33" value="&lt;b style=&quot;font-size: 10px;&quot;&gt;Adapter Layer&amp;nbsp;&lt;i&gt;A&lt;/i&gt;&lt;/b&gt;" style="rounded=1;whiteSpace=wrap;html=1;fillColor=#99CCFF;flipV=1;" vertex="1" parent="aOosx10H6OlpPJV3kiYZ-27">
          <mxGeometry y="346" width="166" height="20" as="geometry" />
        </mxCell>
        <mxCell id="aOosx10H6OlpPJV3kiYZ-34" value="&lt;b style=&quot;font-size: 10px;&quot;&gt;Frozen Component&amp;nbsp;&lt;/b&gt;&lt;b style=&quot;text-align: start;&quot;&gt;&lt;i&gt;&lt;span style=&quot;font-family: Arial, sans-serif;&quot; lang=&quot;EN-US&quot;&gt;&lt;font style=&quot;font-size: 14px;&quot;&gt;ε&lt;/font&gt;&lt;/span&gt;&lt;/i&gt;&lt;/b&gt;&lt;b style=&quot;font-size: 10px;&quot;&gt;&amp;nbsp;Layer&lt;/b&gt;" style="rounded=1;whiteSpace=wrap;html=1;textOpacity=30;opacity=30;flipV=1;" vertex="1" parent="aOosx10H6OlpPJV3kiYZ-27">
          <mxGeometry y="190" width="166" height="20" as="geometry" />
        </mxCell>
        <mxCell id="aOosx10H6OlpPJV3kiYZ-35" value="&lt;b style=&quot;font-size: 10px;&quot;&gt;Compressed Emulator&amp;nbsp;&lt;/b&gt;&lt;b style=&quot;text-align: start;&quot;&gt;&lt;i&gt;&lt;span style=&quot;font-family: Arial, sans-serif;&quot; lang=&quot;EN-US&quot;&gt;&lt;font style=&quot;font-size: 14px;&quot;&gt;ε*&amp;nbsp;&lt;/font&gt;&lt;/span&gt;&lt;/i&gt;&lt;/b&gt;&lt;b style=&quot;font-size: 10px;&quot;&gt;Layer&lt;/b&gt;" style="rounded=1;whiteSpace=wrap;html=1;flipV=1;" vertex="1" parent="aOosx10H6OlpPJV3kiYZ-27">
          <mxGeometry y="220" width="166" height="20" as="geometry" />
        </mxCell>
        <mxCell id="aOosx10H6OlpPJV3kiYZ-36" value="&lt;b&gt;Compressed Emulator&amp;nbsp;&lt;/b&gt;&lt;b style=&quot;font-size: 12px; text-align: start;&quot;&gt;&lt;i&gt;&lt;span style=&quot;font-family: Arial, sans-serif;&quot; lang=&quot;EN-US&quot;&gt;&lt;font style=&quot;font-size: 14px;&quot;&gt;ε*&amp;nbsp;&lt;/font&gt;&lt;/span&gt;&lt;/i&gt;&lt;/b&gt;&lt;b&gt;Layer&lt;/b&gt;" style="rounded=1;whiteSpace=wrap;html=1;fontSize=10;flipV=1;" vertex="1" parent="aOosx10H6OlpPJV3kiYZ-27">
          <mxGeometry y="100" width="166" height="20" as="geometry" />
        </mxCell>
        <mxCell id="aOosx10H6OlpPJV3kiYZ-37" value="&lt;b style=&quot;font-size: 10px;&quot;&gt;Frozen Component&amp;nbsp;&lt;/b&gt;&lt;b style=&quot;text-align: start;&quot;&gt;&lt;i&gt;&lt;span style=&quot;font-family: Arial, sans-serif;&quot; lang=&quot;EN-US&quot;&gt;&lt;font style=&quot;font-size: 14px;&quot;&gt;ε&lt;/font&gt;&lt;/span&gt;&lt;/i&gt;&lt;/b&gt;&lt;b style=&quot;font-size: 10px;&quot;&gt;&amp;nbsp;Layer&lt;/b&gt;" style="rounded=1;whiteSpace=wrap;html=1;textOpacity=30;strokeColor=default;opacity=30;flipV=1;" vertex="1" parent="aOosx10H6OlpPJV3kiYZ-27">
          <mxGeometry y="130" width="166" height="20" as="geometry" />
        </mxCell>
        <mxCell id="aOosx10H6OlpPJV3kiYZ-38" value="&lt;b style=&quot;font-size: 10px;&quot;&gt;Frozen Component&amp;nbsp;&lt;/b&gt;&lt;b style=&quot;text-align: start;&quot;&gt;&lt;i&gt;&lt;span style=&quot;font-family: Arial, sans-serif;&quot; lang=&quot;EN-US&quot;&gt;&lt;font style=&quot;font-size: 14px;&quot;&gt;ε&lt;/font&gt;&lt;/span&gt;&lt;/i&gt;&lt;/b&gt;&lt;b style=&quot;font-size: 10px;&quot;&gt;&amp;nbsp;Layer&lt;/b&gt;" style="rounded=1;whiteSpace=wrap;html=1;textOpacity=30;opacity=30;flipV=1;" vertex="1" parent="aOosx10H6OlpPJV3kiYZ-27">
          <mxGeometry y="253" width="166" height="20" as="geometry" />
        </mxCell>
        <mxCell id="aOosx10H6OlpPJV3kiYZ-39" value="&lt;b style=&quot;font-size: 10px;&quot;&gt;Compressed Emulator&amp;nbsp;&lt;/b&gt;&lt;b style=&quot;text-align: start;&quot;&gt;&lt;i&gt;&lt;span style=&quot;font-family: Arial, sans-serif;&quot; lang=&quot;EN-US&quot;&gt;&lt;font style=&quot;font-size: 14px;&quot;&gt;ε*&amp;nbsp;&lt;/font&gt;&lt;/span&gt;&lt;/i&gt;&lt;/b&gt;&lt;b style=&quot;font-size: 10px;&quot;&gt;Layer&lt;/b&gt;" style="rounded=1;whiteSpace=wrap;html=1;flipV=1;" vertex="1" parent="aOosx10H6OlpPJV3kiYZ-27">
          <mxGeometry y="283" width="166" height="20" as="geometry" />
        </mxCell>
        <mxCell id="aOosx10H6OlpPJV3kiYZ-40" value="" style="group" vertex="1" connectable="0" parent="1">
          <mxGeometry x="-504" y="629" width="166" height="364" as="geometry" />
        </mxCell>
        <mxCell id="aOosx10H6OlpPJV3kiYZ-41" value="&lt;b&gt;Full Foundation Model&lt;/b&gt;" style="text;html=1;align=center;verticalAlign=middle;resizable=0;points=[];autosize=1;fontColor=#FF6666;strokeColor=none;" vertex="1" parent="aOosx10H6OlpPJV3kiYZ-40">
          <mxGeometry x="9.9994623655914" width="146" height="26" as="geometry" />
        </mxCell>
        <mxCell id="aOosx10H6OlpPJV3kiYZ-42" value="&lt;b style=&quot;font-size: 10px;&quot;&gt;Adapter Layer&amp;nbsp;&lt;i&gt;A&lt;/i&gt;&lt;/b&gt;" style="rounded=1;whiteSpace=wrap;html=1;fillColor=#99CCFF;flipV=1;" vertex="1" parent="aOosx10H6OlpPJV3kiYZ-40">
          <mxGeometry y="38" width="166" height="20" as="geometry" />
        </mxCell>
        <mxCell id="aOosx10H6OlpPJV3kiYZ-43" value="&lt;b style=&quot;font-size: 10px;&quot;&gt;Frozen Component&amp;nbsp;&lt;/b&gt;&lt;b style=&quot;text-align: start;&quot;&gt;&lt;i&gt;&lt;span style=&quot;font-family: Arial, sans-serif;&quot; lang=&quot;EN-US&quot;&gt;&lt;font style=&quot;font-size: 14px;&quot;&gt;ε&lt;/font&gt;&lt;/span&gt;&lt;/i&gt;&lt;/b&gt;&lt;b style=&quot;font-size: 10px;&quot;&gt;&amp;nbsp;Layer&lt;/b&gt;" style="rounded=1;whiteSpace=wrap;html=1;flipV=1;" vertex="1" parent="aOosx10H6OlpPJV3kiYZ-40">
          <mxGeometry y="159" width="166" height="20" as="geometry" />
        </mxCell>
        <mxCell id="aOosx10H6OlpPJV3kiYZ-44" value="&lt;b style=&quot;font-size: 10px;&quot;&gt;Adapter Layer&amp;nbsp;&lt;i&gt;A&lt;/i&gt;&lt;/b&gt;" style="rounded=1;whiteSpace=wrap;html=1;fillColor=#99CCFF;flipV=1;" vertex="1" parent="aOosx10H6OlpPJV3kiYZ-40">
          <mxGeometry y="68" width="166" height="20" as="geometry" />
        </mxCell>
        <mxCell id="aOosx10H6OlpPJV3kiYZ-45" value="&lt;b style=&quot;font-size: 10px;&quot;&gt;Adapter Layer&amp;nbsp;&lt;i&gt;A&lt;/i&gt;&lt;/b&gt;" style="rounded=1;whiteSpace=wrap;html=1;fillColor=#99CCFF;flipV=1;" vertex="1" parent="aOosx10H6OlpPJV3kiYZ-40">
          <mxGeometry y="311" width="166" height="20" as="geometry" />
        </mxCell>
        <mxCell id="aOosx10H6OlpPJV3kiYZ-46" value="&lt;b style=&quot;font-size: 10px;&quot;&gt;Adapter Layer&amp;nbsp;&lt;i&gt;A&lt;/i&gt;&lt;/b&gt;" style="rounded=1;whiteSpace=wrap;html=1;fillColor=#99CCFF;flipV=1;" vertex="1" parent="aOosx10H6OlpPJV3kiYZ-40">
          <mxGeometry y="344" width="166" height="20" as="geometry" />
        </mxCell>
        <mxCell id="aOosx10H6OlpPJV3kiYZ-47" value="&lt;b style=&quot;font-size: 10px;&quot;&gt;Frozen Component&amp;nbsp;&lt;/b&gt;&lt;b style=&quot;text-align: start;&quot;&gt;&lt;i&gt;&lt;span style=&quot;font-family: Arial, sans-serif;&quot; lang=&quot;EN-US&quot;&gt;&lt;font style=&quot;font-size: 14px;&quot;&gt;ε&lt;/font&gt;&lt;/span&gt;&lt;/i&gt;&lt;/b&gt;&lt;b style=&quot;font-size: 10px;&quot;&gt;&amp;nbsp;Layer&lt;/b&gt;" style="rounded=1;whiteSpace=wrap;html=1;flipV=1;" vertex="1" parent="aOosx10H6OlpPJV3kiYZ-40">
          <mxGeometry y="190" width="166" height="20" as="geometry" />
        </mxCell>
        <mxCell id="aOosx10H6OlpPJV3kiYZ-48" value="&lt;b style=&quot;font-size: 10px;&quot;&gt;Frozen Component&amp;nbsp;&lt;/b&gt;&lt;b style=&quot;text-align: start;&quot;&gt;&lt;i&gt;&lt;span style=&quot;font-family: Arial, sans-serif;&quot; lang=&quot;EN-US&quot;&gt;&lt;font style=&quot;font-size: 14px;&quot;&gt;ε&lt;/font&gt;&lt;/span&gt;&lt;/i&gt;&lt;/b&gt;&lt;b style=&quot;font-size: 10px;&quot;&gt;&amp;nbsp;Layer&lt;/b&gt;" style="rounded=1;whiteSpace=wrap;html=1;flipV=1;" vertex="1" parent="aOosx10H6OlpPJV3kiYZ-40">
          <mxGeometry y="220" width="166" height="20" as="geometry" />
        </mxCell>
        <mxCell id="aOosx10H6OlpPJV3kiYZ-49" value="&lt;b style=&quot;font-size: 10px;&quot;&gt;Frozen Component&amp;nbsp;&lt;/b&gt;&lt;b style=&quot;text-align: start;&quot;&gt;&lt;i&gt;&lt;span style=&quot;font-family: Arial, sans-serif;&quot; lang=&quot;EN-US&quot;&gt;&lt;font style=&quot;font-size: 14px;&quot;&gt;ε&lt;/font&gt;&lt;/span&gt;&lt;/i&gt;&lt;/b&gt;&lt;b style=&quot;font-size: 10px;&quot;&gt;&amp;nbsp;Layer&lt;/b&gt;" style="rounded=1;whiteSpace=wrap;html=1;flipV=1;" vertex="1" parent="aOosx10H6OlpPJV3kiYZ-40">
          <mxGeometry y="99" width="166" height="20" as="geometry" />
        </mxCell>
        <mxCell id="aOosx10H6OlpPJV3kiYZ-50" value="&lt;b style=&quot;font-size: 10px;&quot;&gt;Frozen Component&amp;nbsp;&lt;/b&gt;&lt;b style=&quot;text-align: start;&quot;&gt;&lt;i&gt;&lt;span style=&quot;font-family: Arial, sans-serif;&quot; lang=&quot;EN-US&quot;&gt;&lt;font style=&quot;font-size: 14px;&quot;&gt;ε&lt;/font&gt;&lt;/span&gt;&lt;/i&gt;&lt;/b&gt;&lt;b style=&quot;font-size: 10px;&quot;&gt;&amp;nbsp;Layer&lt;/b&gt;" style="rounded=1;whiteSpace=wrap;html=1;flipV=1;" vertex="1" parent="aOosx10H6OlpPJV3kiYZ-40">
          <mxGeometry y="129" width="166" height="20" as="geometry" />
        </mxCell>
        <mxCell id="aOosx10H6OlpPJV3kiYZ-51" value="&lt;b style=&quot;font-size: 10px;&quot;&gt;Frozen Component&amp;nbsp;&lt;/b&gt;&lt;b style=&quot;text-align: start;&quot;&gt;&lt;i&gt;&lt;span style=&quot;font-family: Arial, sans-serif;&quot; lang=&quot;EN-US&quot;&gt;&lt;font style=&quot;font-size: 14px;&quot;&gt;ε&lt;/font&gt;&lt;/span&gt;&lt;/i&gt;&lt;/b&gt;&lt;b style=&quot;font-size: 10px;&quot;&gt;&amp;nbsp;Layer&lt;/b&gt;" style="rounded=1;whiteSpace=wrap;html=1;flipV=1;" vertex="1" parent="aOosx10H6OlpPJV3kiYZ-40">
          <mxGeometry y="250" width="166" height="20" as="geometry" />
        </mxCell>
        <mxCell id="aOosx10H6OlpPJV3kiYZ-52" value="&lt;b style=&quot;font-size: 10px;&quot;&gt;Frozen Component&amp;nbsp;&lt;/b&gt;&lt;b style=&quot;text-align: start;&quot;&gt;&lt;i&gt;&lt;span style=&quot;font-family: Arial, sans-serif;&quot; lang=&quot;EN-US&quot;&gt;&lt;font style=&quot;font-size: 14px;&quot;&gt;ε&lt;/font&gt;&lt;/span&gt;&lt;/i&gt;&lt;/b&gt;&lt;b style=&quot;font-size: 10px;&quot;&gt;&amp;nbsp;Layer&lt;/b&gt;" style="rounded=1;whiteSpace=wrap;html=1;flipV=1;" vertex="1" parent="aOosx10H6OlpPJV3kiYZ-40">
          <mxGeometry y="281" width="166" height="20" as="geometry" />
        </mxCell>
        <mxCell id="aOosx10H6OlpPJV3kiYZ-53" value="" style="group" vertex="1" connectable="0" parent="1">
          <mxGeometry x="292" y="628" width="166" height="366" as="geometry" />
        </mxCell>
        <mxCell id="aOosx10H6OlpPJV3kiYZ-54" value="&lt;b style=&quot;font-size: 10px;&quot;&gt;Compressed Emulator&amp;nbsp;&lt;/b&gt;&lt;b style=&quot;text-align: start;&quot;&gt;&lt;i&gt;&lt;span style=&quot;font-family: Arial, sans-serif;&quot; lang=&quot;EN-US&quot;&gt;&lt;font style=&quot;font-size: 14px;&quot;&gt;ε*&amp;nbsp;&lt;/font&gt;&lt;/span&gt;&lt;/i&gt;&lt;/b&gt;&lt;b style=&quot;font-size: 10px;&quot;&gt;Layer&lt;/b&gt;" style="rounded=1;whiteSpace=wrap;html=1;flipV=1;flipH=1;" vertex="1" parent="aOosx10H6OlpPJV3kiYZ-53">
          <mxGeometry y="130" width="166" height="20" as="geometry" />
        </mxCell>
        <mxCell id="aOosx10H6OlpPJV3kiYZ-55" value="&lt;b&gt;Bottom-Layer Dropping&lt;/b&gt;" style="text;html=1;align=center;verticalAlign=middle;resizable=0;points=[];autosize=1;fontColor=#FF6666;strokeColor=none;" vertex="1" parent="aOosx10H6OlpPJV3kiYZ-53">
          <mxGeometry x="3.0021505376344084" width="160" height="30" as="geometry" />
        </mxCell>
        <mxCell id="aOosx10H6OlpPJV3kiYZ-56" value="&lt;b style=&quot;font-size: 10px;&quot;&gt;Adapter Layer&amp;nbsp;&lt;i&gt;A&lt;/i&gt;&lt;/b&gt;" style="rounded=1;whiteSpace=wrap;html=1;fillColor=#99CCFF;flipV=1;flipH=1;" vertex="1" parent="aOosx10H6OlpPJV3kiYZ-53">
          <mxGeometry y="40" width="166" height="20" as="geometry" />
        </mxCell>
        <mxCell id="aOosx10H6OlpPJV3kiYZ-57" value="&lt;b style=&quot;font-size: 10px;&quot;&gt;Frozen Component&amp;nbsp;&lt;/b&gt;&lt;b style=&quot;text-align: start;&quot;&gt;&lt;i&gt;&lt;span style=&quot;font-family: Arial, sans-serif;&quot; lang=&quot;EN-US&quot;&gt;&lt;font style=&quot;font-size: 14px;&quot;&gt;ε&lt;/font&gt;&lt;/span&gt;&lt;/i&gt;&lt;/b&gt;&lt;b style=&quot;font-size: 10px;&quot;&gt;&amp;nbsp;Layer&lt;/b&gt;" style="rounded=1;whiteSpace=wrap;html=1;flipV=1;flipH=1;textOpacity=30;opacity=30;" vertex="1" parent="aOosx10H6OlpPJV3kiYZ-53">
          <mxGeometry y="220" width="166" height="20" as="geometry" />
        </mxCell>
        <mxCell id="aOosx10H6OlpPJV3kiYZ-58" value="&lt;b style=&quot;font-size: 10px;&quot;&gt;Adapter Layer&amp;nbsp;&lt;i&gt;A&lt;/i&gt;&lt;/b&gt;" style="rounded=1;whiteSpace=wrap;html=1;fillColor=#99CCFF;flipV=1;flipH=1;" vertex="1" parent="aOosx10H6OlpPJV3kiYZ-53">
          <mxGeometry y="70" width="166" height="20" as="geometry" />
        </mxCell>
        <mxCell id="aOosx10H6OlpPJV3kiYZ-59" value="&lt;b style=&quot;font-size: 10px;&quot;&gt;Adapter Layer&amp;nbsp;&lt;i&gt;A&lt;/i&gt;&lt;/b&gt;" style="rounded=1;whiteSpace=wrap;html=1;fillColor=#99CCFF;flipV=1;flipH=1;" vertex="1" parent="aOosx10H6OlpPJV3kiYZ-53">
          <mxGeometry y="313" width="166" height="20" as="geometry" />
        </mxCell>
        <mxCell id="aOosx10H6OlpPJV3kiYZ-60" value="&lt;b style=&quot;font-size: 10px;&quot;&gt;Adapter Layer&amp;nbsp;&lt;i&gt;A&lt;/i&gt;&lt;/b&gt;" style="rounded=1;whiteSpace=wrap;html=1;fillColor=#99CCFF;flipV=1;flipH=1;" vertex="1" parent="aOosx10H6OlpPJV3kiYZ-53">
          <mxGeometry y="346" width="166" height="20" as="geometry" />
        </mxCell>
        <mxCell id="aOosx10H6OlpPJV3kiYZ-61" value="&lt;b&gt;Frozen Component&amp;nbsp;&lt;/b&gt;&lt;b style=&quot;font-size: 12px; text-align: start;&quot;&gt;&lt;i&gt;&lt;span style=&quot;font-family: Arial, sans-serif;&quot; lang=&quot;EN-US&quot;&gt;&lt;font style=&quot;font-size: 14px;&quot;&gt;ε&lt;/font&gt;&lt;/span&gt;&lt;/i&gt;&lt;/b&gt;&lt;b&gt;&amp;nbsp;Layer&lt;/b&gt;" style="rounded=1;whiteSpace=wrap;html=1;fontSize=10;flipV=1;flipH=1;textOpacity=30;opacity=30;" vertex="1" parent="aOosx10H6OlpPJV3kiYZ-53">
          <mxGeometry y="252" width="166" height="20" as="geometry" />
        </mxCell>
        <mxCell id="aOosx10H6OlpPJV3kiYZ-62" value="&lt;b style=&quot;font-size: 10px;&quot;&gt;Compressed Emulator&amp;nbsp;&lt;/b&gt;&lt;b style=&quot;text-align: start;&quot;&gt;&lt;i&gt;&lt;span style=&quot;font-family: Arial, sans-serif;&quot; lang=&quot;EN-US&quot;&gt;&lt;font style=&quot;font-size: 14px;&quot;&gt;ε*&amp;nbsp;&lt;/font&gt;&lt;/span&gt;&lt;/i&gt;&lt;/b&gt;&lt;b style=&quot;font-size: 10px;&quot;&gt;Layer&lt;/b&gt;" style="rounded=1;whiteSpace=wrap;html=1;strokeColor=default;flipV=1;flipH=1;" vertex="1" parent="aOosx10H6OlpPJV3kiYZ-53">
          <mxGeometry y="100" width="166" height="20" as="geometry" />
        </mxCell>
        <mxCell id="aOosx10H6OlpPJV3kiYZ-63" value="&lt;b style=&quot;font-size: 10px;&quot;&gt;Compressed Emulator&amp;nbsp;&lt;/b&gt;&lt;b style=&quot;text-align: start;&quot;&gt;&lt;i&gt;&lt;span style=&quot;font-family: Arial, sans-serif;&quot; lang=&quot;EN-US&quot;&gt;&lt;font style=&quot;font-size: 14px;&quot;&gt;ε*&amp;nbsp;&lt;/font&gt;&lt;/span&gt;&lt;/i&gt;&lt;/b&gt;&lt;b style=&quot;font-size: 10px;&quot;&gt;Layer&lt;/b&gt;" style="rounded=1;whiteSpace=wrap;html=1;flipV=1;flipH=1;" vertex="1" parent="aOosx10H6OlpPJV3kiYZ-53">
          <mxGeometry y="190" width="166" height="20" as="geometry" />
        </mxCell>
        <mxCell id="aOosx10H6OlpPJV3kiYZ-64" value="&lt;b style=&quot;font-size: 10px;&quot;&gt;Compressed Emulator&amp;nbsp;&lt;/b&gt;&lt;b style=&quot;text-align: start;&quot;&gt;&lt;i&gt;&lt;span style=&quot;font-family: Arial, sans-serif;&quot; lang=&quot;EN-US&quot;&gt;&lt;font style=&quot;font-size: 14px;&quot;&gt;ε*&amp;nbsp;&lt;/font&gt;&lt;/span&gt;&lt;/i&gt;&lt;/b&gt;&lt;b style=&quot;font-size: 10px;&quot;&gt;Layer&lt;/b&gt;" style="rounded=1;whiteSpace=wrap;html=1;flipV=1;flipH=1;" vertex="1" parent="aOosx10H6OlpPJV3kiYZ-53">
          <mxGeometry y="160" width="166" height="20" as="geometry" />
        </mxCell>
        <mxCell id="aOosx10H6OlpPJV3kiYZ-65" value="&lt;b style=&quot;font-size: 10px;&quot;&gt;Frozen Component&amp;nbsp;&lt;/b&gt;&lt;b style=&quot;text-align: start;&quot;&gt;&lt;i&gt;&lt;span style=&quot;font-family: Arial, sans-serif;&quot; lang=&quot;EN-US&quot;&gt;&lt;font style=&quot;font-size: 14px;&quot;&gt;ε&lt;/font&gt;&lt;/span&gt;&lt;/i&gt;&lt;/b&gt;&lt;b style=&quot;font-size: 10px;&quot;&gt;&amp;nbsp;Layer&lt;/b&gt;" style="rounded=1;whiteSpace=wrap;html=1;flipV=1;opacity=30;textOpacity=30;" vertex="1" parent="aOosx10H6OlpPJV3kiYZ-53">
          <mxGeometry y="283" width="166" height="20" as="geometry" />
        </mxCell>
      </root>
    </mxGraphModel>
  </diagram>
  <diagram id="hCjtwVPmpwJd58Uju5G3" name="Page-3">
    <mxGraphModel dx="1434" dy="720" grid="0" gridSize="10" guides="1" tooltips="1" connect="1" arrows="1" fold="1" page="0" pageScale="1" pageWidth="827" pageHeight="1169" math="0" shadow="0">
      <root>
        <mxCell id="0" />
        <mxCell id="1" parent="0" />
        <mxCell id="y9vYJUEYbQx8hvu4IiKi-2" value="" style="rounded=0;whiteSpace=wrap;html=1;strokeWidth=2;" vertex="1" parent="1">
          <mxGeometry x="140" y="170" width="240" height="43" as="geometry" />
        </mxCell>
      </root>
    </mxGraphModel>
  </diagram>
</mxfile>
